<!-- Generated by IcoMoon.io -->
<svg version="1.1" xmlns="http://www.w3.org/2000/svg" width="32" height="32" viewBox="0 0 32 32">
<title>close-ellipse-svgrepo-com</title>
<path d="M10.672 12.558c-0.521-0.521-0.521-1.365 0-1.886s1.365-0.521 1.886 0l3.45 3.45 3.447-3.447c0.521-0.521 1.365-0.521 1.886 0s0.521 1.365 0 1.886l-3.447 3.447 3.445 3.445c0.521 0.521 0.521 1.365 0 1.886s-1.365 0.521-1.886 0l-3.445-3.445-3.446 3.446c-0.521 0.521-1.365 0.521-1.886 0s-0.521-1.365 0-1.886l3.446-3.446-3.45-3.45z"></path>
<path d="M30.667 16c0 8.1-6.567 14.667-14.667 14.667s-14.667-6.567-14.667-14.667c0-8.1 6.566-14.667 14.667-14.667s14.667 6.566 14.667 14.667zM4.009 16c0 6.622 5.368 11.991 11.991 11.991s11.991-5.369 11.991-11.991c0-6.622-5.369-11.991-11.991-11.991s-11.991 5.368-11.991 11.991z"></path>
</svg>
